<svg width="104" height="100" viewBox="0 0 104 100" fill="none" xmlns="http://www.w3.org/2000/svg">
<path d="M72.4518 45C65.7429 45 64.8143 51.4286 64.8143 51.4286H79.0679C79.0679 51.4286 79.1607 45 72.4518 45Z" fill="#F5EEDE"/>
<path d="M40.1143 51.4286H27.4857V62.5893H39.4875C41.2982 62.5447 44.6875 62.0536 44.6875 57.1652C44.6875 51.3616 40.1143 51.4286 40.1143 51.4286Z" fill="#F5EEDE"/>
<path d="M52 0C23.2839 0 0 22.3884 0 50C0 77.6116 23.2839 100 52 100C80.7161 100 104 77.6116 104 50C104 22.3884 80.7161 0 52 0ZM62.9571 30.7143H80.8554V35.8482H62.9571V30.7143ZM53.9036 57.6786C53.9036 70.4018 40.1143 70 40.1143 70H17.55V28.2589H40.1143C46.9857 28.2589 52.3946 31.8973 52.3946 39.375C52.3946 46.8527 45.7786 47.3214 45.7786 47.3214C54.5071 47.3214 53.9036 57.6786 53.9036 57.6786ZM87.3786 56.9866H64.8839C64.8839 64.7321 72.5214 64.2411 72.5214 64.2411C79.7411 64.2411 79.4857 59.7545 79.4857 59.7545H87.1232C87.1232 71.6741 72.2661 70.8482 72.2661 70.8482C54.4607 70.8482 55.5982 54.8884 55.5982 54.8884C55.5982 54.8884 55.575 38.8616 72.2661 38.8616C89.8393 38.8839 87.3786 56.9866 87.3786 56.9866Z" fill="#F5EEDE"/>
<path d="M43.1786 40.0224C43.1786 35.6921 40.1143 35.6921 40.1143 35.6921H27.4857V45.0001H39.325C41.3679 45.0001 43.1786 44.3528 43.1786 40.0224Z" fill="#F5EEDE"/>
</svg>
