<svg width="45" height="45" viewBox="0 0 45 45" fill="none" xmlns="http://www.w3.org/2000/svg">
<path d="M22.5 0C10.0744 0 0 10.0744 0 22.5C0 34.9256 10.0744 45 22.5 45C34.9256 45 45 34.9256 45 22.5C45 10.0744 34.9256 0 22.5 0ZM13.0538 14.4C14.4675 14.4 15.5606 15.4294 15.6881 16.65C15.8175 17.7431 15.3675 18.7069 14.1469 19.2863C13.5038 19.6069 13.2469 19.6088 13.1175 19.4156C13.0537 19.2863 13.1175 19.1588 13.2469 19.0294C14.4037 18.0656 14.4038 17.2931 14.2744 16.2019C14.2106 15.4931 13.6969 15.0431 13.1813 15.0431C10.9313 15.0431 7.7175 20.0569 8.1675 23.7225C8.36062 25.1363 9.19687 26.8088 10.9969 26.8088C11.5744 26.8088 12.2156 26.6156 12.7969 26.3587C13.7344 25.8638 14.295 25.4775 14.8538 24.8588C14.7169 23.1994 16.1737 21.0225 18.3244 21.0225C19.29 21.0225 20.0606 21.4069 20.1244 22.1156C20.2519 23.0794 19.4175 23.2069 19.1606 23.2069C18.9038 23.2069 18.4519 23.1431 18.4519 22.8881C18.3881 22.6294 19.0312 22.7569 18.9675 22.1794C18.9019 21.7931 18.5175 21.6656 18.1313 21.6656C16.7812 21.6656 16.0106 23.5294 16.2019 24.6863C16.2675 25.2019 16.5244 25.7156 17.04 25.7156C17.4244 25.7156 18.0037 25.1344 18.1969 24.3C18.3244 23.7225 18.84 23.3363 19.29 23.3363C19.4813 23.3363 19.6088 23.4 19.6744 23.6569V23.9156C19.6106 24.1725 19.4175 24.9431 19.4831 25.1363C19.4831 25.2656 19.5469 25.4569 19.8019 25.4569C19.9744 25.4569 20.6194 25.1194 21.2588 24.5963C21.4781 23.49 21.7331 22.1625 21.7331 22.0519C21.7969 21.6019 21.99 21.1519 22.89 21.1519C23.0831 21.1519 23.2106 21.2156 23.2744 21.4725V21.7313L23.0194 22.8881C23.8538 21.795 25.0763 21.0244 25.8469 21.0244C26.1694 21.0244 26.4263 21.2156 26.4263 21.5381C26.4263 21.7313 26.4263 22.0519 26.2969 22.3744C26.04 23.0813 25.7175 24.1744 25.5244 25.1381C25.5244 25.395 25.59 25.6519 25.9125 25.6519C26.2331 25.6519 27.1969 25.2656 27.9675 24.2381L27.9806 24.2306C27.9769 24.1031 27.9675 23.9794 27.9675 23.8519C27.9675 23.0813 28.0331 22.4381 28.1625 21.9881C28.29 21.4744 28.9331 21.0244 29.3194 21.0244C29.5125 21.0244 29.7038 21.1538 29.7038 21.345C29.7038 21.4106 29.7037 21.5381 29.64 21.6019C29.3831 22.4381 29.19 23.2088 29.19 23.9813C29.19 24.4313 29.2537 25.0725 29.3813 25.4588C29.3813 25.5225 29.4469 25.5881 29.5125 25.5881C29.64 25.5881 30.54 24.7538 31.1812 23.6606C30.6037 23.2744 30.2812 22.6313 30.2812 21.8606C30.2812 20.5106 31.1175 19.8038 31.89 19.8038C32.5331 19.8038 33.0469 20.2537 33.0469 21.1538C33.0469 21.7313 32.8537 22.3725 32.5331 22.9538H32.7244C32.9283 22.9604 33.1314 22.9237 33.3201 22.8461C33.5089 22.7686 33.679 22.6519 33.8194 22.5037C33.8784 22.4064 33.9662 22.3297 34.0706 22.2844C34.6987 21.4875 35.6269 20.8969 36.7144 20.8969C37.6144 20.8969 38.4469 21.2812 38.5125 21.9881C38.64 22.9538 37.8037 23.1469 37.5469 23.1469L37.5431 23.1431C37.2844 23.1431 36.8363 23.0775 36.8363 22.8206C36.8363 22.5637 37.4156 22.6931 37.35 22.1156C37.2862 21.7294 36.9 21.6 36.5138 21.6C35.2275 21.6 34.395 23.2706 34.5863 24.6206C34.65 25.1362 34.9069 25.7138 35.4206 25.7138C35.8069 25.7138 36.3862 25.1363 36.6431 24.3C36.7706 23.7863 37.2862 23.3363 37.7362 23.3363C37.9294 23.3363 38.055 23.4 38.1206 23.6569C38.1206 23.7863 38.1206 24.0431 37.8638 24.8794C37.545 25.4569 37.5431 25.7794 37.6069 26.0362C37.6706 26.55 37.9275 26.9363 38.1862 27.1294C38.25 27.1931 38.3138 27.3206 38.3138 27.3206C38.3138 27.45 38.25 27.5794 38.0569 27.5794C37.9931 27.5794 37.9294 27.5794 37.8638 27.5138C36.9 27.1294 36.5138 26.4862 36.3844 25.8431C36 26.2931 35.55 26.55 35.0344 26.55C34.2 26.55 33.3656 25.7794 33.2344 24.8138C33.1975 24.4028 33.2454 23.9886 33.375 23.5969C32.9944 23.8406 32.5838 23.9775 32.2069 23.9775H31.8881C31.05 25.2 30.15 26.0363 29.5069 26.4206C29.2885 26.5369 29.0471 26.6035 28.8 26.6156C28.6725 26.6156 28.4794 26.55 28.4156 26.4206C28.2375 26.1356 28.1231 25.6856 28.0537 25.17C27.1519 26.1581 25.9069 26.6794 25.3294 26.6794C24.6862 26.6794 24.3019 26.2931 24.2381 25.6481V24.9431C24.4294 23.5294 24.945 22.6931 24.945 22.4363C24.9432 22.4023 24.9291 22.3702 24.9053 22.346C24.8814 22.3219 24.8495 22.3073 24.8156 22.305C24.3656 22.305 22.8881 23.85 22.6294 24.8794L22.4362 25.7138C22.3087 26.2931 21.7294 26.6794 21.345 26.6794C21.1519 26.6794 21.0225 26.6138 20.9588 26.3569V26.1L21.045 25.6631C20.2294 26.2444 19.4137 26.6156 19.0294 26.6156C18.4519 26.6156 18.1294 26.2931 18.0656 25.8431C17.6794 26.3569 17.2312 26.6156 16.6519 26.6156C15.9919 26.6156 15.3469 26.1656 15.0356 25.5038C14.5781 26.0194 14.055 26.5406 13.4381 26.9363C12.5381 27.5156 11.5106 27.9656 10.2881 27.9656C9.19687 27.9656 8.23125 27.3863 7.7175 26.8725C6.945 26.1656 6.49688 25.0725 6.43125 24.0431C6.04688 20.8931 7.97437 16.8431 10.9312 15.0431C11.64 14.6588 12.3469 14.4 13.0538 14.4ZM31.3725 20.5706C31.1775 20.5706 31.05 20.8931 31.05 21.2138C31.05 21.7275 31.3069 22.3069 31.6294 22.6294C31.7551 22.2786 31.8198 21.9089 31.8206 21.5363C31.8206 20.8931 31.5656 20.5706 31.3725 20.5706Z" fill="#D06BC3"/>
</svg>
