<svg width="104" height="100" viewBox="0 0 104 100" fill="none" xmlns="http://www.w3.org/2000/svg">
<path fill-rule="evenodd" clip-rule="evenodd" d="M52 0C80.704 0 104 22.4 104 50C104 77.6 80.704 100 52 100C23.296 100 0 77.6 0 50C0 22.4 23.296 0 52 0ZM78.0347 30.0667L27.56 29.9333L52.7973 49.2L78.0347 30.0667ZM46.8347 54.5667L24.7867 37.9V69.5667H79.3173V38.5667L58.864 54.6333C51.9307 60.0667 54.0107 59.9667 46.8347 54.5667ZM25.064 23.8667H79.456C83.8587 23.8667 87.4293 27.3333 87.4293 31.5333V68.2C87.4293 72.4333 83.824 75.8667 79.456 75.8667H25.064C20.6613 75.8667 17.0907 72.4 17.0907 68.2V31.5333C17.0907 27.3 20.696 23.8667 25.064 23.8667Z" fill="#F5EEDE"/>
</svg>
