<svg width="37" height="30" viewBox="0 0 37 30" fill="none" xmlns="http://www.w3.org/2000/svg">
<path d="M34.9557 7.57662C36.3038 11.9914 36.9779 15.4851 36.9779 18.0578C36.9779 21.361 36.1112 23.8701 34.3778 25.5853C33.5754 26.3793 32.7408 27.1733 31.8741 27.9673C31.0074 28.7296 30.1408 29.1108 29.2742 29.1108C28.9211 29.1108 28.5519 29.0631 28.1667 28.9678C27.0754 28.6184 26.4655 27.6338 26.3371 26.014C26.1124 23.7907 25.8716 22.3932 25.6148 21.8216C25.005 20.297 24.3791 18.7566 23.7371 17.2003C22.9988 15.3581 22.2926 14.437 21.6185 14.437C21.2976 14.437 20.9766 14.6117 20.6556 14.9611C20.3346 15.2787 20.1741 15.7392 20.1741 16.3427C20.1741 16.4698 20.1741 16.6603 20.1741 16.9144C20.2062 17.1685 20.2222 17.3591 20.2222 17.4861C20.2222 18.1214 20.0136 18.5819 19.5963 18.8677C19.4037 18.9948 19.2272 19.0583 19.0667 19.0583C18.6173 19.0583 18.0235 18.3913 17.2852 17.0574C16.547 15.6916 15.921 15.0087 15.4074 15.0087C15.2469 15.0087 15.0865 15.0564 14.926 15.1517C14.3161 15.4693 14.0112 16.0886 14.0112 17.0097C14.0112 17.1367 14.0112 17.375 14.0112 17.7243C14.0433 18.0737 14.0593 18.3278 14.0593 18.4866C14.0593 18.9948 13.9951 19.4236 13.8667 19.7729C13.5136 20.9481 13.1766 22.1391 12.8556 23.3461C12.4062 24.5212 11.7 25.4423 10.7371 26.1093C8.87535 27.4433 6.93335 28.1103 4.91112 28.1103C3.08149 28.1103 2.02223 27.3957 1.73334 25.9664C0.57778 20.2811 0 16.2157 0 13.77C0 8.40238 1.97408 4.79747 5.92225 2.95535C9.3568 1.36727 11.9086 0.573242 13.5778 0.573242C15.3111 0.573242 16.6272 1.24023 17.5259 2.5742C17.8148 3.05064 17.9593 3.57468 17.9593 4.14636C17.9593 4.59103 17.8148 5.27392 17.5259 6.19498C17.237 7.11609 17.0926 7.81479 17.0926 8.29123C17.0926 8.83118 17.237 9.32349 17.5259 9.76811C17.9111 10.4351 18.3445 10.7686 18.826 10.7686C19.468 10.7686 20.3828 9.99047 21.5704 8.43416C22.6939 7.00488 23.8013 5.57565 24.8927 4.14636C26.2729 2.62184 27.5408 1.85957 28.6964 1.85957C29.0174 1.85957 29.3544 1.9231 29.7075 2.05016C31.4408 2.71713 32.484 3.20944 32.8371 3.52704C33.6075 4.22579 34.3137 5.57565 34.9557 7.57662Z" fill="#101013"/>
</svg>
