<svg width="30" height="45" viewBox="0 0 30 45" fill="none" xmlns="http://www.w3.org/2000/svg">
<path d="M15 22.4824C15 12.5059 30 12.5059 30 22.4824C30 32.459 15 32.459 15 22.4824ZM0 37.5176C0 33.4426 3.36449 30.0703 7.42991 30.0703H15V37.5176C15 47.4941 0 47.4941 0 37.5176ZM15 0V15.0351H22.4299C32.3832 15.0351 32.3832 0 22.4299 0H15ZM0 7.44731C0 11.5222 3.36449 14.8946 7.42991 14.8946H15V0H7.57009C3.36449 0 0 3.37237 0 7.44731ZM0 22.4824C0 26.5574 3.36449 29.9297 7.42991 29.9297H15V15.0351H7.57009C3.36449 15.0351 0 18.4075 0 22.4824Z" fill="#D06BC3"/>
</svg>
