<svg width="46" height="46" viewBox="0 0 46 46" fill="none" xmlns="http://www.w3.org/2000/svg">
<rect width="46" height="46" rx="8" fill="#F5EEDE"/>
<path d="M23 22.4887C23 16.0593 33 16.0593 33 22.4887C33 28.918 23 28.918 23 22.4887ZM13 32.178C13 29.5519 15.243 27.3786 17.9533 27.3786H23V32.178C23 38.6073 13 38.6073 13 32.178ZM23 8V17.6893H27.9533C34.5888 17.6893 34.5888 8 27.9533 8H23ZM13 12.7994C13 15.4254 15.243 17.5988 17.9533 17.5988H23V8H18.0467C15.243 8 13 10.1733 13 12.7994ZM13 22.4887C13 25.1148 15.243 27.2881 17.9533 27.2881H23V17.6893H18.0467C15.243 17.6893 13 19.8626 13 22.4887Z" fill="#101013"/>
</svg>
