<svg width="104" height="100" viewBox="0 0 104 100" fill="none" xmlns="http://www.w3.org/2000/svg">
<path d="M52.0021 0C23.2865 0 0 22.9494 0 51.2634C0 73.9164 14.9007 93.1314 35.5604 99.9083C38.158 100.382 39.1143 98.7967 39.1143 97.4421C39.1143 96.2193 39.0642 92.1803 39.0433 87.8984C24.577 90.9987 21.5242 81.8502 21.5242 81.8502C19.1604 75.9256 15.7485 74.3487 15.7485 74.3487C11.0294 71.1661 16.1034 71.2319 16.1034 71.2319C21.3237 71.5942 24.0758 76.5143 24.0758 76.5143C28.7156 84.3535 36.2411 82.0849 39.2062 80.7756C39.6739 77.4613 41.0187 75.2009 42.5096 73.9205C30.9582 72.6236 18.818 68.2264 18.818 48.5831C18.818 42.9878 20.8476 38.4136 24.176 34.8234C23.6373 33.5347 21.8582 28.3223 24.6814 21.2613C24.6814 21.2613 29.0497 19.882 38.9849 26.5149C43.1318 25.3785 47.5795 24.8103 52.0021 24.7898C56.4205 24.8103 60.8723 25.3785 65.0277 26.5149C74.9545 19.882 79.3145 21.2613 79.3145 21.2613C82.1459 28.3223 80.3627 33.5388 79.824 34.8275C83.1566 38.4177 85.1737 42.992 85.1737 48.5872C85.1737 68.2758 73.0084 72.6153 61.4278 73.8834C63.2945 75.4727 64.9567 78.5935 64.9567 83.3777C64.9567 90.237 64.8982 95.7582 64.8982 97.4462C64.8982 98.809 65.8337 100.411 68.4689 99.9042C89.1202 93.119 104 73.9081 104 51.2634C104 22.9494 80.7177 0 52.0021 0Z" fill="#F5EEDE"/>
</svg>
