<svg width="45" height="46" viewBox="0 0 45 46" fill="none" xmlns="http://www.w3.org/2000/svg">
<path d="M19.7437 20.091C19.5562 19.4939 19.3875 18.916 19.2 18.3189C19.0125 17.7217 18.8438 17.1631 18.6938 16.6045C18.5438 16.0651 18.4125 15.5643 18.2812 15.102H18.2437C18.075 15.9303 17.8688 16.7586 17.6063 17.5869C17.325 18.5115 17.0438 19.4746 16.7438 20.4378C16.4813 21.4202 16.2 22.3255 15.9187 23.1345H20.6812C20.5688 22.7281 20.4188 22.2485 20.25 21.7457C20.0813 21.2275 19.9125 20.6689 19.7437 20.091ZM37.0312 0H7.96875C3.5625 0 0 3.65992 0 8.18666V36.8881C0 41.4149 3.5625 45.0748 7.96875 45.0748H37.0312C41.4375 45.0748 45 41.4149 45 36.8881V8.18666C45 3.65992 41.4375 0 37.0312 0ZM27.5625 31.8413H23.6419C23.5125 31.8606 23.3813 31.7643 23.3438 31.6294L21.8062 27.0449H14.8312L13.4062 31.5716C13.3688 31.745 13.2188 31.8606 13.05 31.8432H9.525C9.31875 31.8432 9.2625 31.7257 9.31875 31.4965L15.3562 13.638C15.4125 13.4454 15.4688 13.2335 15.5437 13.0023C15.6187 12.5978 15.6563 12.174 15.6563 11.7503C15.6375 11.654 15.7125 11.5576 15.8063 11.5384H20.6625C20.8125 11.5384 20.8875 11.5962 20.9062 11.6925L27.75 31.5331C27.8062 31.7431 27.75 31.8413 27.5625 31.8413ZM33.9375 31.5524C33.9375 31.7643 33.8644 31.8606 33.6956 31.8606H30.0188C29.8313 31.8606 29.7375 31.7431 29.7375 31.5524V16.7201C29.7375 16.5274 29.8144 16.4504 29.9831 16.4504H33.6956C33.8644 16.4504 33.9375 16.5467 33.9375 16.7201V31.5524ZM33.5456 14.1581C33.1125 14.6204 32.475 14.8708 31.8375 14.8323C31.2188 14.8516 30.6188 14.6012 30.1669 14.1581C29.7356 13.6765 29.5106 13.0409 29.5294 12.3859C29.5106 11.731 29.7544 11.1146 30.2025 10.6716C30.6562 10.2285 31.2563 9.99736 31.875 9.99736C32.6081 9.99736 33.1669 10.2285 33.5812 10.6716C33.9938 11.1339 34.2188 11.7503 34.2 12.3859C34.2188 13.0409 33.9938 13.6765 33.5456 14.1581Z" fill="#D06BC3"/>
</svg>
