<svg width="46" height="46" viewBox="0 0 46 46" fill="none" xmlns="http://www.w3.org/2000/svg">
<path d="M20.1825 20.5034C19.9908 19.894 19.8183 19.3043 19.6267 18.6949C19.435 18.0855 19.2625 17.5154 19.1092 16.9453C18.9558 16.3949 18.8217 15.8838 18.6875 15.412H18.6492C18.4767 16.2573 18.2658 17.1026 17.9975 17.9479C17.71 18.8915 17.4225 19.8744 17.1158 20.8573C16.8475 21.8598 16.56 22.7838 16.2725 23.6094H21.1408C21.0258 23.1946 20.8725 22.7051 20.7 22.192C20.5275 21.6632 20.355 21.0932 20.1825 20.5034ZM37.8542 0H8.14583C3.64167 0 0 3.73504 0 8.3547V37.6453C0 42.265 3.64167 46 8.14583 46H37.8542C42.3583 46 46 42.265 46 37.6453V8.3547C46 3.73504 42.3583 0 37.8542 0ZM28.175 32.4949H24.1672C24.035 32.5145 23.9008 32.4162 23.8625 32.2786L22.2908 27.6H15.1608L13.7042 32.2197C13.6658 32.3966 13.5125 32.5145 13.34 32.4968H9.73667C9.52583 32.4968 9.46833 32.3769 9.52583 32.143L15.6975 13.9179C15.755 13.7214 15.8125 13.5051 15.8892 13.2692C15.9658 12.8564 16.0042 12.4239 16.0042 11.9915C15.985 11.8932 16.0617 11.7949 16.1575 11.7752H21.1217C21.275 11.7752 21.3517 11.8342 21.3708 11.9325L28.3667 32.1803C28.4242 32.3946 28.3667 32.4949 28.175 32.4949ZM34.6917 32.2C34.6917 32.4162 34.6169 32.5145 34.4444 32.5145H30.6858C30.4942 32.5145 30.3983 32.3946 30.3983 32.2V17.0632C30.3983 16.8667 30.4769 16.788 30.6494 16.788H34.4444C34.6169 16.788 34.6917 16.8863 34.6917 17.0632V32.2ZM34.2911 14.4487C33.8483 14.9205 33.1967 15.1761 32.545 15.1368C31.9125 15.1564 31.2992 14.9009 30.8373 14.4487C30.3964 13.9573 30.1664 13.3085 30.1856 12.6402C30.1664 11.9718 30.4156 11.3427 30.8737 10.8906C31.3375 10.4385 31.9508 10.2026 32.5833 10.2026C33.3327 10.2026 33.9039 10.4385 34.3275 10.8906C34.7492 11.3624 34.9792 11.9915 34.96 12.6402C34.9792 13.3085 34.7492 13.9573 34.2911 14.4487Z" fill="#F5EEDE"/>
</svg>
