<svg width="45" height="46" viewBox="0 0 45 46" fill="none" xmlns="http://www.w3.org/2000/svg">
<path d="M7.96875 0C3.5625 0 0 3.65992 0 8.18666V36.8881C0 41.4149 3.5625 45.0748 7.96875 45.0748H37.0312C41.4375 45.0748 45 41.4149 45 36.8881V8.18666C45 3.65992 41.4375 0 37.0312 0H7.96875ZM29.175 9.88178H32.9813C33.075 9.86252 33.15 9.93957 33.1688 10.0166V28.3933C33.1688 28.74 33.1875 29.1253 33.2062 29.549C33.2437 29.9536 33.2625 30.3388 33.2812 30.6663C33.2812 30.8011 33.225 30.9167 33.0938 30.9745C32.1187 31.3983 31.0875 31.7065 30.0375 31.8991C29.1 32.0725 28.125 32.1688 27.15 32.1688C25.7625 32.188 24.375 31.8991 23.1187 31.3019C21.9375 30.7433 20.9625 29.8187 20.2875 28.6822C19.5938 27.5072 19.2563 26.0432 19.2563 24.2903C19.2375 22.8649 19.5938 21.4587 20.2875 20.2259C21 18.9738 22.0312 17.9336 23.2687 17.2401C24.5812 16.4889 26.1562 16.1229 28.0125 16.1229C28.1062 16.1229 28.2375 16.1229 28.4062 16.1422C28.575 16.1614 28.7625 16.1614 28.9875 16.1807V10.0937C28.9875 9.95883 29.0438 9.88178 29.175 9.88178ZM12.4313 11.5384H16.0875C16.2 11.5191 16.3125 11.5962 16.3312 11.731C16.35 11.7503 16.35 11.7695 16.35 11.7888V31.5524C16.35 31.7643 16.2563 31.8606 16.0875 31.8606H12.4125C12.2437 31.8606 12.1687 31.7643 12.1687 31.5524V11.7888C12.1687 11.6154 12.2625 11.5384 12.4313 11.5384ZM27.8625 19.7058C27.1312 19.7058 26.4 19.8599 25.7437 20.2066C25.1062 20.5341 24.5625 21.0156 24.15 21.6321C23.7375 22.2485 23.5312 23.0768 23.5312 24.0784C23.5125 24.7526 23.625 25.4268 23.85 26.0625C24.0375 26.5826 24.3188 27.0449 24.6938 27.4301C25.05 27.7769 25.4813 28.0465 25.9688 28.2006C26.475 28.374 27 28.4511 27.525 28.4511C27.8063 28.4511 28.0688 28.4318 28.3125 28.4125C28.5563 28.4318 28.7812 28.3933 28.9875 28.3162V19.8406C28.8188 19.8021 28.65 19.7636 28.4812 19.7443C28.275 19.725 28.0687 19.7058 27.8625 19.7058Z" fill="#D06BC3"/>
</svg>
