<svg width="47" height="45" viewBox="0 0 47 45" fill="none" xmlns="http://www.w3.org/2000/svg">
<path fill-rule="evenodd" clip-rule="evenodd" d="M47 0H0V45H47V0ZM27.976 37.1517L31.5723 35.1584C32.5196 36.6384 33.7497 37.7262 35.9271 37.7262C37.7557 37.7262 38.9233 36.8501 38.9233 35.6414C38.9233 34.1916 37.7248 33.6783 35.7053 32.8324L34.6015 32.3796C31.4144 31.0859 29.3008 29.4546 29.3008 26.0093C29.3008 22.8382 31.8197 20.4195 35.7633 20.4195C38.5716 20.4195 40.5904 21.3546 42.0422 23.8015L38.6024 25.9179C37.846 24.622 37.0257 24.1087 35.7633 24.1087C34.4708 24.1087 33.6505 24.8948 33.6505 25.9214C33.6505 27.1912 34.4708 27.7045 36.3633 28.4899L37.4693 28.942C41.2234 30.4819 43.3369 32.0534 43.3369 35.5866C43.3369 39.394 40.2144 41.4788 36.0182 41.4788C31.9159 41.4788 29.2656 39.6056 27.9723 37.158L27.976 37.1517ZM12.3581 37.6052L15.955 35.5212C16.649 36.6954 17.2798 37.6938 18.7941 37.6938C20.2452 37.6938 21.1603 37.1468 21.1603 35.036V20.6578H25.5768V35.0965C25.5768 39.477 22.8963 41.4696 18.9836 41.4696C15.4498 41.4696 13.3994 39.7188 12.3581 37.6024V37.6052Z" fill="#D06BC3"/>
</svg>
