<svg width="160" height="53" viewBox="0 0 160 53" fill="none" xmlns="http://www.w3.org/2000/svg">
<path d="M34.9557 10.5765C36.3038 14.9913 36.9779 18.485 36.9779 21.0577C36.9779 24.3609 36.1112 26.87 34.3778 28.5852C33.5754 29.3791 32.7408 30.1732 31.8741 30.9672C31.0075 31.7295 30.1408 32.1106 29.2742 32.1106C28.9211 32.1106 28.5519 32.063 28.1667 31.9677C27.0753 31.6183 26.4655 30.6337 26.3371 29.0139C26.1124 26.7906 25.8716 25.3931 25.6148 24.8214C25.005 23.2969 24.3791 21.7565 23.7371 20.2002C22.9988 18.358 22.2927 17.4369 21.6185 17.4369C21.2976 17.4369 20.9766 17.6116 20.6556 17.961C20.3346 18.2786 20.1741 18.7391 20.1741 19.3426C20.1741 19.4697 20.1741 19.6602 20.1741 19.9143C20.2062 20.1684 20.2222 20.359 20.2222 20.486C20.2222 21.1212 20.0136 21.5818 19.5963 21.8676C19.4037 21.9947 19.2272 22.0582 19.0667 22.0582C18.6173 22.0582 18.0235 21.3912 17.2852 20.0572C16.5469 18.6915 15.921 18.0086 15.4074 18.0086C15.247 18.0086 15.0864 18.0563 14.926 18.1516C14.3161 18.4692 14.0112 19.0885 14.0112 20.0096C14.0112 20.1366 14.0112 20.3748 14.0112 20.7242C14.0433 21.0736 14.0593 21.3277 14.0593 21.4865C14.0593 21.9947 13.9951 22.4235 13.8667 22.7728C13.5136 23.948 13.1765 25.139 12.8556 26.346C12.4062 27.5211 11.7 28.4422 10.7371 29.1092C8.87535 30.4432 6.93335 31.1102 4.91112 31.1102C3.08149 31.1102 2.02222 30.3955 1.73334 28.9663C0.57778 23.281 0 19.2156 0 16.7699C0 11.4023 1.97408 7.79737 5.92225 5.95525C9.3568 4.36717 11.9086 3.57314 13.5778 3.57314C15.3111 3.57314 16.6272 4.24012 17.5259 5.57409C17.8148 6.05054 17.9593 6.57457 17.9593 7.14626C17.9593 7.59092 17.8148 8.27381 17.5259 9.19487C17.237 10.116 17.0926 10.8147 17.0926 11.2911C17.0926 11.8311 17.237 12.3234 17.5259 12.768C17.9111 13.435 18.3445 13.7685 18.826 13.7685C19.468 13.7685 20.3827 12.9904 21.5704 11.4341C22.6938 10.0048 23.8013 8.57554 24.8927 7.14626C26.2729 5.62174 27.5408 4.85947 28.6964 4.85947C29.0173 4.85947 29.3544 4.92299 29.7075 5.05005C31.4408 5.71703 32.484 6.20933 32.8371 6.52693C33.6075 7.22568 34.3137 8.57554 34.9557 10.5765Z" fill="#F5EEDE"/>
<path d="M66.3825 22.344C66.4145 22.9793 66.4305 23.5669 66.4305 24.1068C66.4305 26.8383 65.58 29.0933 63.879 30.8719C62.4985 32.3012 60.7815 33.0158 58.727 33.0158C57.09 33.0158 54.0885 32.2059 49.7232 30.5861C45.6467 29.0616 43.2553 28.1087 42.5492 27.7276C40.1096 26.4254 38.8899 24.8373 38.8899 22.9634C38.8899 22.5823 38.938 22.1852 39.0343 21.7724C39.4837 19.9302 40.222 18.5803 41.2492 17.7228C42.2763 16.8334 43.9936 16.2141 46.401 15.8647C47.0751 15.7695 47.4121 15.6424 47.4121 15.4836C47.4121 15.2931 46.5294 14.8166 44.764 14.0544C42.8701 13.2286 41.7146 12.5139 41.2973 11.9105C40.88 11.307 40.6714 10.7829 40.6714 10.3383C40.6714 8.97256 42.2442 8.28967 45.3899 8.28967C47.6368 8.28967 50.1245 8.63905 52.853 9.3378C55.5815 10.0366 57.732 10.8941 59.3045 11.9105C61.5515 13.3715 63.2045 14.8325 64.264 16.2935C65.516 18.0086 66.222 20.0255 66.3825 22.344ZM57.9085 21.9629C57.9085 21.1054 57.523 20.359 56.753 19.7237C55.9825 19.0885 55.0515 18.7709 53.9605 18.7709C52.869 18.7709 51.938 19.0885 51.1675 19.7237C50.3975 20.359 50.012 21.1054 50.012 21.9629C50.012 22.8522 50.3975 23.6145 51.1675 24.2497C51.938 24.885 52.869 25.2026 53.9605 25.2026C55.0515 25.2026 55.9825 24.885 56.753 24.2497C57.523 23.6145 57.9085 22.8522 57.9085 21.9629Z" fill="#F5EEDE"/>
<path d="M94.2705 35.922C93.6925 37.7006 93.099 39.4634 92.489 41.2102C91.847 43.0841 91.141 44.5769 90.3705 45.6886C89.3755 47.1496 88.0755 48.3566 86.4705 49.3094C82.811 51.469 79.9065 52.549 77.7555 52.549C76.0225 52.549 74.5295 51.9615 73.278 50.7864C72.315 49.8969 71.5125 48.7377 70.8705 47.3084C70.2605 45.8791 69.9555 44.5134 69.9555 43.2112C69.9555 40.9562 70.8545 39.5428 72.652 38.9711C72.9085 38.9075 73.1495 38.8758 73.374 38.8758C74.305 38.8758 75.3965 39.8445 76.6485 41.782C77.932 43.7194 79.0715 44.6881 80.067 44.6881C80.2915 44.6881 80.5 44.6564 80.6925 44.5928C81.9125 44.307 82.9075 43.5765 83.678 42.4013C84.288 41.2261 84.9135 40.0351 85.5555 38.8282C88.958 32.9523 90.6595 28.7757 90.6595 26.2983C90.6595 25.1549 90.21 24.5832 89.311 24.5832C89.0225 24.5832 88.7015 24.6309 88.3485 24.7262C87.642 24.9167 86.968 25.282 86.326 25.8219C85.1385 26.743 84.5125 27.2194 84.4485 27.2512C84.2555 27.3782 83.2445 28.3152 81.415 30.062C80.3555 31.0784 79.232 31.5389 78.0445 31.4437C76.568 31.3484 75.3645 30.5544 74.4335 29.0616C73.7275 27.5688 73.005 26.076 72.267 24.5832C69.6025 19.692 68.2705 14.642 68.2705 9.4331C68.2705 3.68431 70.2445 0.651107 74.1925 0.333492C75.1875 0.238209 76.0225 1.50866 76.6965 4.14485C77.6275 7.89266 78.3335 10.2112 78.815 11.1006C79.2 11.8311 79.6495 13.0857 80.163 14.8643C80.6125 16.5159 81.0295 17.6434 81.415 18.2469C82.057 19.1679 82.9555 19.5808 84.111 19.4855C85.588 19.3585 86.7275 18.5645 87.53 17.1035C88.011 16.2141 88.4925 14.7055 88.974 12.5775C89.0385 12.3234 89.0705 12.0852 89.0705 11.8628C89.0705 10.4654 87.995 8.65492 85.8445 6.43165C83.726 4.20837 82.667 2.74735 82.667 2.0486C82.667 1.44514 83.084 0.936959 83.9185 0.524059C84.625 0.174686 85.331 0 86.037 0C86.904 0 87.931 0.285852 89.1185 0.857555C90.21 1.42926 91.2855 1.98508 92.3445 2.52502C97.1275 4.81183 99.5185 8.92492 99.5185 14.8643C99.5185 17.7546 98.957 21.2324 97.8335 25.2978C97.1595 27.7435 95.9715 31.2848 94.2705 35.922Z" fill="#F5EEDE"/>
<path d="M129.392 13.7685C129.841 14.7849 130.066 15.7854 130.066 16.77C130.066 18.3898 129.488 20.089 128.332 21.8677C127.626 22.9793 126.342 24.5674 124.48 26.6319C122.522 28.7916 120.773 30.3638 119.232 31.3484C117.274 32.5553 115.188 33.1588 112.973 33.1588C112.491 33.1588 111.978 33.127 111.432 33.0635C110.533 32.9682 109.635 32.8412 108.736 32.6824C107.869 32.5553 107.163 32.1742 106.617 31.5389C106.264 31.0943 106.088 30.6497 106.088 30.205C106.088 28.6169 108.543 26.9177 113.454 25.1073C115.316 24.5356 117.162 23.9639 118.991 23.3922C121.014 22.6617 122.025 21.7724 122.025 20.7243C122.025 20.3749 121.945 20.0096 121.784 19.6285C120.95 17.8816 119.521 17.0082 117.499 17.0082C116.664 17.0082 115.685 17.1352 114.562 17.3893C113.278 17.7704 111.994 18.1516 110.71 18.5327C109.201 18.9456 107.982 19.1521 107.051 19.1521C105.446 19.1521 104.178 18.5327 103.247 17.2941C102.509 16.3094 102.14 15.2137 102.14 14.0067C102.14 11.5611 103.488 9.09961 106.184 6.62225C107.404 5.54234 108.768 4.81185 110.277 4.43072C111.272 4.20839 112.893 4.04958 115.14 3.9543C115.396 3.9543 115.974 3.92253 116.873 3.85902C117.643 3.82725 118.237 3.81137 118.654 3.81137C121.158 3.81137 122.474 4.57364 122.603 6.09821C122.667 7.11456 121.977 7.62273 120.532 7.62273C120.275 7.62273 119.826 7.60687 119.184 7.57509C118.574 7.51158 118.109 7.4798 117.788 7.4798C116.44 7.4798 115.445 7.74975 114.803 8.2897C113.743 9.24254 112.957 10.3224 112.443 11.5294C112.251 11.9423 112.154 12.2916 112.154 12.5775C112.154 13.2445 112.668 13.578 113.695 13.578C114.433 13.578 116.183 13.2763 118.943 12.6727C121.704 12.0375 123.774 11.72 125.154 11.72C127.401 11.72 128.814 12.4028 129.392 13.7685Z" fill="#F5EEDE"/>
<path d="M159.952 22.344C159.984 22.9793 160 23.5669 160 24.1068C160 26.8383 159.15 29.0933 157.448 30.8719C156.068 32.3012 154.351 33.0158 152.297 33.0158C150.66 33.0158 147.658 32.2059 143.293 30.5861C139.216 29.0616 136.825 28.1087 136.119 27.7276C133.679 26.4254 132.459 24.8373 132.459 22.9634C132.459 22.5823 132.508 22.1852 132.604 21.7724C133.053 19.9302 133.792 18.5803 134.819 17.7228C135.846 16.8334 137.563 16.2141 139.971 15.8647C140.645 15.7695 140.982 15.6424 140.982 15.4836C140.982 15.2931 140.099 14.8166 138.334 14.0544C136.44 13.2286 135.284 12.5139 134.867 11.9105C134.45 11.307 134.241 10.7829 134.241 10.3383C134.241 8.97256 135.814 8.28967 138.959 8.28967C141.206 8.28967 143.694 8.63905 146.422 9.3378C149.151 10.0366 151.301 10.8941 152.874 11.9105C155.121 13.3715 156.774 14.8325 157.834 16.2935C159.085 18.0086 159.792 20.0255 159.952 22.344ZM151.478 21.9629C151.478 21.1054 151.093 20.359 150.322 19.7237C149.552 19.0885 148.621 18.7709 147.53 18.7709C146.439 18.7709 145.508 19.0885 144.737 19.7237C143.967 20.359 143.582 21.1054 143.582 21.9629C143.582 22.8522 143.967 23.6145 144.737 24.2497C145.508 24.885 146.439 25.2026 147.53 25.2026C148.621 25.2026 149.552 24.885 150.322 24.2497C151.093 23.6145 151.478 22.8522 151.478 21.9629Z" fill="#F5EEDE"/>
</svg>
