<svg width="160" height="53" viewBox="0 0 160 53" fill="none" xmlns="http://www.w3.org/2000/svg">
<path d="M34.9557 10.5766C36.3038 14.9914 36.9779 18.4851 36.9779 21.0578C36.9779 24.361 36.1112 26.8701 34.3778 28.5853C33.5754 29.3793 32.7408 30.1733 31.8741 30.9673C31.0075 31.7296 30.1408 32.1108 29.2742 32.1108C28.9211 32.1108 28.5519 32.0631 28.1667 31.9678C27.0753 31.6184 26.4655 30.6338 26.3371 29.014C26.1124 26.7907 25.8716 25.3932 25.6148 24.8216C25.005 23.297 24.3791 21.7566 23.7371 20.2003C22.9988 18.3581 22.2927 17.437 21.6185 17.437C21.2976 17.437 20.9766 17.6117 20.6556 17.9611C20.3346 18.2787 20.1741 18.7392 20.1741 19.3427C20.1741 19.4698 20.1741 19.6603 20.1741 19.9144C20.2062 20.1685 20.2222 20.3591 20.2222 20.4861C20.2222 21.1214 20.0136 21.5819 19.5963 21.8677C19.4037 21.9948 19.2272 22.0583 19.0667 22.0583C18.6173 22.0583 18.0235 21.3913 17.2852 20.0574C16.5469 18.6916 15.921 18.0087 15.4074 18.0087C15.247 18.0087 15.0864 18.0564 14.926 18.1517C14.3161 18.4693 14.0112 19.0886 14.0112 20.0097C14.0112 20.1367 14.0112 20.375 14.0112 20.7243C14.0433 21.0737 14.0593 21.3278 14.0593 21.4866C14.0593 21.9948 13.9951 22.4236 13.8667 22.7729C13.5136 23.9481 13.1765 25.1391 12.8556 26.3461C12.4062 27.5212 11.7 28.4423 10.7371 29.1093C8.87535 30.4433 6.93335 31.1103 4.91112 31.1103C3.08149 31.1103 2.02222 30.3957 1.73334 28.9664C0.57778 23.2811 0 19.2157 0 16.77C0 11.4024 1.97408 7.79747 5.92225 5.95535C9.3568 4.36727 11.9086 3.57324 13.5778 3.57324C15.3111 3.57324 16.6272 4.24023 17.5259 5.5742C17.8148 6.05064 17.9593 6.57468 17.9593 7.14636C17.9593 7.59103 17.8148 8.27392 17.5259 9.19498C17.237 10.1161 17.0926 10.8148 17.0926 11.2912C17.0926 11.8312 17.237 12.3235 17.5259 12.7681C17.9111 13.4351 18.3445 13.7686 18.826 13.7686C19.468 13.7686 20.3827 12.9905 21.5704 11.4342C22.6938 10.0049 23.8013 8.57565 24.8927 7.14636C26.2729 5.62184 27.5408 4.85957 28.6964 4.85957C29.0173 4.85957 29.3544 4.9231 29.7075 5.05016C31.4408 5.71713 32.484 6.20944 32.8371 6.52704C33.6075 7.22579 34.3137 8.57565 34.9557 10.5766Z" fill="#101013"/>
<path d="M66.3825 22.3439C66.4145 22.9792 66.4305 23.5668 66.4305 24.1067C66.4305 26.8382 65.58 29.0932 63.879 30.8718C62.4985 32.3011 60.7815 33.0157 58.727 33.0157C57.09 33.0157 54.0885 32.2058 49.7232 30.586C45.6467 29.0614 43.2553 28.1086 42.5492 27.7274C40.1096 26.4253 38.8899 24.8372 38.8899 22.9633C38.8899 22.5821 38.938 22.1851 39.0343 21.7722C39.4837 19.9301 40.222 18.5802 41.2492 17.7227C42.2763 16.8333 43.9936 16.214 46.401 15.8646C47.0751 15.7693 47.4121 15.6423 47.4121 15.4835C47.4121 15.2929 46.5294 14.8165 44.764 14.0542C42.8701 13.2285 41.7146 12.5138 41.2973 11.9103C40.88 11.3069 40.6714 10.7828 40.6714 10.3382C40.6714 8.97244 42.2442 8.28955 45.3899 8.28955C47.6368 8.28955 50.1245 8.63893 52.853 9.33768C55.5815 10.0364 57.732 10.894 59.3045 11.9103C61.5515 13.3713 63.2045 14.8324 64.264 16.2934C65.516 18.0085 66.222 20.0253 66.3825 22.3439ZM57.9085 21.9628C57.9085 21.1053 57.523 20.3589 56.753 19.7236C55.9825 19.0884 55.0515 18.7708 53.9605 18.7708C52.869 18.7708 51.938 19.0884 51.1675 19.7236C50.3975 20.3589 50.012 21.1053 50.012 21.9628C50.012 22.8521 50.3975 23.6144 51.1675 24.2496C51.938 24.8848 52.869 25.2024 53.9605 25.2024C55.0515 25.2024 55.9825 24.8848 56.753 24.2496C57.523 23.6144 57.9085 22.8521 57.9085 21.9628Z" fill="#101013"/>
<path d="M94.2705 35.922C93.6925 37.7006 93.099 39.4634 92.489 41.2102C91.847 43.0841 91.141 44.5769 90.3705 45.6886C89.3755 47.1496 88.0755 48.3566 86.4705 49.3094C82.811 51.469 79.9065 52.549 77.7555 52.549C76.0225 52.549 74.5295 51.9615 73.278 50.7864C72.315 49.8969 71.5125 48.7377 70.8705 47.3084C70.2605 45.8791 69.9555 44.5134 69.9555 43.2112C69.9555 40.9562 70.8545 39.5428 72.652 38.9711C72.9085 38.9075 73.1495 38.8758 73.374 38.8758C74.305 38.8758 75.3965 39.8445 76.6485 41.782C77.932 43.7194 79.0715 44.6881 80.067 44.6881C80.2915 44.6881 80.5 44.6564 80.6925 44.5928C81.9125 44.307 82.9075 43.5765 83.678 42.4013C84.288 41.2261 84.9135 40.0351 85.5555 38.8282C88.958 32.9523 90.6595 28.7757 90.6595 26.2983C90.6595 25.1549 90.21 24.5832 89.311 24.5832C89.0225 24.5832 88.7015 24.6309 88.3485 24.7262C87.642 24.9167 86.968 25.282 86.326 25.8219C85.1385 26.743 84.5125 27.2194 84.4485 27.2512C84.2555 27.3782 83.2445 28.3152 81.415 30.062C80.3555 31.0784 79.232 31.5389 78.0445 31.4437C76.568 31.3484 75.3645 30.5544 74.4335 29.0616C73.7275 27.5688 73.005 26.076 72.267 24.5832C69.6025 19.692 68.2705 14.642 68.2705 9.4331C68.2705 3.68431 70.2445 0.651107 74.1925 0.333492C75.1875 0.238209 76.0225 1.50866 76.6965 4.14485C77.6275 7.89266 78.3335 10.2112 78.815 11.1006C79.2 11.8311 79.6495 13.0857 80.163 14.8643C80.6125 16.5159 81.0295 17.6434 81.415 18.2469C82.057 19.1679 82.9555 19.5808 84.111 19.4855C85.588 19.3585 86.7275 18.5645 87.53 17.1035C88.011 16.2141 88.4925 14.7055 88.974 12.5775C89.0385 12.3234 89.0705 12.0852 89.0705 11.8628C89.0705 10.4654 87.995 8.65492 85.8445 6.43165C83.726 4.20837 82.667 2.74735 82.667 2.0486C82.667 1.44514 83.084 0.936959 83.9185 0.524059C84.625 0.174686 85.331 0 86.037 0C86.904 0 87.931 0.285852 89.1185 0.857555C90.21 1.42926 91.2855 1.98508 92.3445 2.52502C97.1275 4.81183 99.5185 8.92492 99.5185 14.8643C99.5185 17.7546 98.957 21.2324 97.8335 25.2978C97.1595 27.7435 95.9715 31.2848 94.2705 35.922Z" fill="#101013"/>
<path d="M129.392 13.7687C129.841 14.7851 130.066 15.7855 130.066 16.7701C130.066 18.3899 129.488 20.0892 128.332 21.8678C127.626 22.9795 126.342 24.5675 124.48 26.632C122.522 28.7918 120.773 30.3639 119.232 31.3486C117.274 32.5555 115.188 33.159 112.973 33.159C112.491 33.159 111.978 33.1272 111.432 33.0637C110.533 32.9684 109.635 32.8413 108.736 32.6825C107.869 32.5555 107.163 32.1743 106.617 31.5391C106.264 31.0945 106.088 30.6498 106.088 30.2051C106.088 28.6171 108.543 26.9178 113.454 25.1074C115.316 24.5358 117.162 23.964 118.991 23.3923C121.014 22.6619 122.025 21.7725 122.025 20.7244C122.025 20.375 121.945 20.0098 121.784 19.6286C120.95 17.8818 119.521 17.0083 117.499 17.0083C116.664 17.0083 115.685 17.1354 114.562 17.3894C113.278 17.7706 111.994 18.1518 110.71 18.5329C109.201 18.9458 107.982 19.1522 107.051 19.1522C105.446 19.1522 104.178 18.5329 103.247 17.2942C102.509 16.3096 102.14 15.2138 102.14 14.0069C102.14 11.5613 103.488 9.09976 106.184 6.6224C107.404 5.54249 108.768 4.81201 110.277 4.43087C111.272 4.20854 112.893 4.04974 115.14 3.95445C115.396 3.95445 115.974 3.92269 116.873 3.85917C117.643 3.8274 118.237 3.81152 118.654 3.81152C121.158 3.81152 122.474 4.57379 122.603 6.09836C122.667 7.11471 121.977 7.62288 120.532 7.62288C120.275 7.62288 119.826 7.60702 119.184 7.57524C118.574 7.51173 118.109 7.47995 117.788 7.47995C116.44 7.47995 115.445 7.7499 114.803 8.28986C113.743 9.24269 112.957 10.3226 112.443 11.5295C112.251 11.9424 112.154 12.2918 112.154 12.5777C112.154 13.2446 112.668 13.5781 113.695 13.5781C114.433 13.5781 116.183 13.2764 118.943 12.6729C121.704 12.0377 123.774 11.7201 125.154 11.7201C127.401 11.7201 128.814 12.4029 129.392 13.7687Z" fill="#101013"/>
<path d="M159.952 22.3439C159.984 22.9792 160 23.5668 160 24.1067C160 26.8382 159.149 29.0932 157.448 30.8718C156.068 32.3011 154.35 33.0157 152.296 33.0157C150.659 33.0157 147.658 32.2058 143.292 30.586C139.216 29.0614 136.824 28.1086 136.118 27.7274C133.679 26.4253 132.459 24.8372 132.459 22.9633C132.459 22.5821 132.507 22.1851 132.603 21.7722C133.053 19.9301 133.791 18.5802 134.818 17.7227C135.845 16.8333 137.563 16.214 139.97 15.8646C140.644 15.7693 140.981 15.6423 140.981 15.4835C140.981 15.2929 140.098 14.8165 138.333 14.0542C136.439 13.2285 135.284 12.5138 134.866 11.9103C134.449 11.3069 134.24 10.7828 134.24 10.3382C134.24 8.97244 135.813 8.28955 138.959 8.28955C141.206 8.28955 143.694 8.63893 146.422 9.33768C149.15 10.0364 151.301 10.894 152.874 11.9103C155.121 13.3713 156.774 14.8324 157.833 16.2934C159.085 18.0085 159.791 20.0253 159.952 22.3439ZM151.478 21.9628C151.478 21.1053 151.092 20.3589 150.322 19.7236C149.552 19.0884 148.621 18.7708 147.529 18.7708C146.438 18.7708 145.507 19.0884 144.737 19.7236C143.966 20.3589 143.581 21.1053 143.581 21.9628C143.581 22.8521 143.966 23.6144 144.737 24.2496C145.507 24.8848 146.438 25.2024 147.529 25.2024C148.621 25.2024 149.552 24.8848 150.322 24.2496C151.092 23.6144 151.478 22.8521 151.478 21.9628Z" fill="#101013"/>
</svg>
