<svg width="45" height="46" viewBox="0 0 45 46" fill="none" xmlns="http://www.w3.org/2000/svg">
<path d="M18.4688 15.642C17.775 15.3531 17.025 15.2375 16.2563 15.2567C15.7688 15.2567 15.3375 15.2567 14.9812 15.276C14.6062 15.2567 14.3438 15.276 14.2125 15.2953V21.7678C14.475 21.7871 14.7188 21.8064 14.9437 21.8064H15.9375C16.6688 21.8064 17.4 21.6908 18.0938 21.4596C18.6937 21.2862 19.2188 20.9202 19.6313 20.4386C20.025 19.957 20.2125 19.3021 20.2125 18.4545C20.2312 17.8573 20.0813 17.2601 19.7812 16.74C19.4625 16.2392 19.0125 15.8539 18.4688 15.642ZM37.0312 0H7.96875C3.5625 0 0 3.66008 0 8.18701V36.8878C0 41.4147 3.5625 45.0748 7.96875 45.0748H37.0312C41.4375 45.0748 45 41.4147 45 36.8878V8.18701C45 3.66008 41.4375 0 37.0312 0ZM23.1731 22.442C22.425 23.5208 21.375 24.3299 20.1562 24.7922C18.8813 25.2738 17.475 25.4472 15.9375 25.4472C15.4875 25.4472 15.1875 25.4472 15 25.4279C14.8125 25.4086 14.55 25.4086 14.1938 25.4086V31.5903C14.2125 31.7252 14.1187 31.8427 13.9875 31.8619H10.35C10.2 31.8619 10.125 31.7829 10.125 31.6096V11.7893C10.125 11.6545 10.1812 11.5774 10.3125 11.5774C10.6313 11.5774 10.9312 11.5774 11.3625 11.5581C11.8125 11.5389 12.2812 11.5389 12.7875 11.5196C13.2938 11.5003 13.8375 11.5003 14.4187 11.4811C15 11.4618 15.5625 11.4618 16.125 11.4618C17.6625 11.4618 18.9375 11.6545 19.9875 12.059C20.925 12.3865 21.7875 12.9258 22.5 13.6386C23.1 14.255 23.5687 15.0063 23.8687 15.8346C24.1481 16.6437 24.2981 17.472 24.2981 18.3389C24.3 19.9956 23.925 21.3633 23.1731 22.442ZM36.4688 29.9356C35.9438 30.7061 35.2106 31.3014 34.3688 31.652C33.45 32.0546 32.325 32.2645 30.9731 32.2645C30.1125 32.2645 29.2669 32.1894 28.425 32.016C27.7687 31.8985 27.1125 31.6886 26.5125 31.3996C26.3813 31.3245 26.2856 31.1896 26.3044 31.0355V27.6837C26.3044 27.6278 26.325 27.5488 26.3812 27.5103C26.4356 27.4718 26.4937 27.491 26.55 27.5296C27.2812 27.9726 28.05 28.2828 28.875 28.4735C29.5856 28.6661 30.3356 28.7624 31.0875 28.7624C31.8 28.7624 32.3063 28.6642 32.6437 28.4908C32.9437 28.356 33.15 28.0285 33.15 27.6817C33.15 27.4101 33 27.1616 32.7 26.9112C32.4 26.6627 31.7831 26.3737 30.8644 26.0039C29.9081 25.6571 29.0288 25.1948 28.2019 24.6188C27.6206 24.1931 27.135 23.6364 26.775 22.9814C26.4769 22.365 26.3269 21.6908 26.3456 21.0146C26.3456 20.1863 26.5706 19.3965 26.985 18.6837C27.4538 17.9132 28.1456 17.2968 28.9519 16.9115C29.8312 16.4511 30.9375 16.2392 32.2687 16.2392C33.0375 16.2392 33.825 16.297 34.5938 16.4126C35.1562 16.4896 35.7 16.6437 36.2062 16.8556C36.2794 16.8749 36.3563 16.9519 36.3937 17.029C36.4125 17.106 36.4313 17.1831 36.4313 17.2602V20.4001C36.4313 20.4772 36.3937 20.5542 36.3375 20.5927C36.1687 20.6313 36.075 20.6313 36 20.5927C35.4375 20.2845 34.8375 20.0726 34.2 19.9378C33.5062 19.7837 32.8125 19.6874 32.1 19.6874C31.725 19.6681 31.3312 19.7259 30.9731 19.8222C30.7312 19.88 30.5231 20.0148 30.3919 20.2075C30.2981 20.3616 30.2419 20.5542 30.2419 20.7276C30.2419 20.901 30.3169 21.0743 30.4312 21.2284C30.6 21.4403 30.8231 21.6137 31.0687 21.7486C31.4981 21.9797 31.95 22.1916 32.3981 22.3843C33.4125 22.731 34.3875 23.2126 35.2875 23.7905C35.9062 24.1931 36.4125 24.7344 36.7669 25.3894C37.0669 26.002 37.2169 26.68 37.1981 27.3716C37.2188 28.2789 36.9563 29.1824 36.4688 29.9356Z" fill="#D06BC3"/>
</svg>
