<svg width="46" height="46" viewBox="0 0 46 46" fill="none" xmlns="http://www.w3.org/2000/svg">
<path d="M18.8792 15.9631C18.17 15.6682 17.4033 15.5502 16.6175 15.5699C16.1192 15.5699 15.6783 15.5699 15.3142 15.5896C14.9308 15.5699 14.6625 15.5896 14.5283 15.6092V22.2146C14.7967 22.2343 15.0458 22.2539 15.2758 22.2539H16.2917C17.0392 22.2539 17.7867 22.136 18.4958 21.9001C19.1092 21.7231 19.6458 21.3496 20.0675 20.8582C20.47 20.3667 20.6617 19.6983 20.6617 18.8333C20.6808 18.2239 20.5275 17.6144 20.2208 17.0836C19.895 16.5725 19.435 16.1793 18.8792 15.9631ZM37.8542 0H8.14583C3.64167 0 0 3.7352 0 8.35506V37.6449C0 42.2648 3.64167 46 8.14583 46H37.8542C42.3583 46 46 42.2648 46 37.6449V8.35506C46 3.7352 42.3583 0 37.8542 0ZM23.6881 22.9027C22.9233 24.0036 21.85 24.8293 20.6042 25.3011C19.3008 25.7926 17.8633 25.9695 16.2917 25.9695C15.8317 25.9695 15.525 25.9695 15.3333 25.9498C15.1417 25.9302 14.8733 25.9302 14.5092 25.9302V32.2387C14.5283 32.3763 14.4325 32.4963 14.2983 32.5159H10.58C10.4267 32.5159 10.35 32.4353 10.35 32.2584V12.0313C10.35 11.8937 10.4075 11.815 10.5417 11.815C10.8675 11.815 11.1742 11.815 11.615 11.7954C12.075 11.7757 12.5542 11.7757 13.0717 11.7561C13.5892 11.7364 14.145 11.7364 14.7392 11.7167C15.3333 11.6971 15.9083 11.6971 16.4833 11.6971C18.055 11.6971 19.3583 11.8937 20.4317 12.3065C21.39 12.6407 22.2717 13.1912 23 13.9185C23.6133 14.5476 24.0925 15.3143 24.3992 16.1597C24.6847 16.9853 24.8381 17.8307 24.8381 18.7153C24.84 20.406 24.4567 21.8018 23.6881 22.9027ZM37.2792 30.55C36.7425 31.3364 35.9931 31.9438 35.1325 32.3016C34.1933 32.7125 33.0433 32.9268 31.6614 32.9268C30.7817 32.9268 29.9172 32.8501 29.0567 32.6732C28.3858 32.5533 27.715 32.339 27.1017 32.0441C26.9675 31.9674 26.8697 31.8298 26.8889 31.6726V28.2519C26.8889 28.1949 26.91 28.1143 26.9675 28.075C27.0231 28.0356 27.0825 28.0553 27.14 28.0946C27.8875 28.5468 28.6733 28.8633 29.5167 29.0579C30.2431 29.2545 31.0097 29.3528 31.7783 29.3528C32.5067 29.3528 33.0242 29.2525 33.3692 29.0756C33.6758 28.938 33.8867 28.6038 33.8867 28.2499C33.8867 27.9727 33.7333 27.7191 33.4267 27.4636C33.12 27.21 32.4894 26.9151 31.5503 26.5376C30.5728 26.1838 29.6738 25.712 28.8286 25.1242C28.2344 24.6897 27.738 24.1215 27.37 23.4531C27.0652 22.8241 26.9119 22.136 26.9311 21.446C26.9311 20.6006 27.1611 19.7946 27.5847 19.0672C28.0638 18.2809 28.7711 17.6518 29.5952 17.2586C30.4942 16.7888 31.625 16.5725 32.9858 16.5725C33.7717 16.5725 34.5767 16.6315 35.3625 16.7494C35.9375 16.8281 36.4933 16.9853 37.0108 17.2016C37.0856 17.2212 37.1642 17.2999 37.2025 17.3785C37.2217 17.4572 37.2408 17.5358 37.2408 17.6144V20.8188C37.2408 20.8975 37.2025 20.9761 37.145 21.0154C36.9725 21.0547 36.8767 21.0547 36.8 21.0154C36.225 20.7009 35.6117 20.4846 34.96 20.347C34.2508 20.1898 33.5417 20.0915 32.8133 20.0915C32.43 20.0718 32.0275 20.1308 31.6614 20.2291C31.4142 20.288 31.2014 20.4257 31.0672 20.6222C30.9714 20.7795 30.9139 20.9761 30.9139 21.153C30.9139 21.33 30.9906 21.5069 31.1075 21.6642C31.28 21.8804 31.5081 22.0574 31.7592 22.195C32.1981 22.4309 32.66 22.6471 33.1181 22.8437C34.155 23.1976 35.1517 23.689 36.0717 24.2788C36.7042 24.6897 37.2217 25.2421 37.5839 25.9105C37.8906 26.5357 38.0439 27.2277 38.0248 27.9334C38.0458 28.8594 37.7775 29.7814 37.2792 30.55Z" fill="#F5EEDE"/>
</svg>
