<svg width="46" height="45" viewBox="0 0 46 45" fill="none" xmlns="http://www.w3.org/2000/svg">
<path d="M19.4542 15.6154C18.7347 15.3324 17.9647 15.2015 17.1925 15.2308C16.4959 15.2162 15.799 15.229 15.1033 15.2692V21.7308L15.8508 21.7692H16.8667C17.6142 21.7692 18.3617 21.6538 19.0708 21.4231C19.6842 21.25 20.2208 20.8846 20.6425 20.4038C21.045 19.9231 21.2367 19.2692 21.2367 18.4231C21.2799 17.825 21.1299 17.2288 20.8088 16.7231C20.4877 16.2173 20.0127 15.8289 19.4542 15.6154ZM37.8542 0H8.14583C5.98542 0 3.9135 0.86109 2.38586 2.39384C0.858219 3.92659 0 6.00544 0 8.17308L0 36.8269C0 41.3462 3.64167 45 8.14583 45H37.8542C42.3583 45 46 41.3462 46 36.8269V8.17308C46 3.65385 42.3583 0 37.8542 0ZM24.265 22.4038C23.4983 23.4808 22.425 24.2885 21.1792 24.75C19.8758 25.2308 18.4383 25.4038 16.8667 25.4038L15.9083 25.3846L15.0842 25.3654V31.5385C15.0896 31.5703 15.0883 31.6029 15.0804 31.6341C15.0725 31.6654 15.0582 31.6947 15.0383 31.72C15.0185 31.7454 14.9935 31.7663 14.9651 31.7814C14.9367 31.7965 14.9054 31.8055 14.8733 31.8077H11.155C11.0017 31.8077 10.925 31.7308 10.925 31.5577V11.7692C10.925 11.6346 10.9825 11.5577 11.1167 11.5577L12.19 11.5385L13.6467 11.5L15.3142 11.4615L17.0583 11.4423C18.63 11.4423 19.9333 11.6346 21.0067 12.0385C21.965 12.3654 22.8467 12.9038 23.575 13.6154C24.1883 14.2308 24.6675 14.9808 24.9742 15.8077C25.2617 16.6154 25.415 17.4423 25.415 18.3077C25.415 19.9615 25.0317 21.3269 24.265 22.4038ZM37.3367 16.3462V20.0962C37.3367 20.25 37.2408 20.3077 37.03 20.3077C35.7654 20.2616 34.507 20.5049 33.35 21.0192C32.9858 21.1923 32.6408 21.4231 32.3725 21.7308V31.5385C32.3725 31.7308 32.2958 31.8077 32.1233 31.8077H28.3475C28.3122 31.8131 28.2762 31.8114 28.2416 31.8027C28.2069 31.794 28.1744 31.7784 28.1458 31.757C28.1173 31.7355 28.0933 31.7085 28.0753 31.6776C28.0572 31.6466 28.0455 31.6124 28.0408 31.5769V20.8462L28.0217 19.4038L27.9833 17.9038C27.9833 17.4615 27.945 17.0385 27.9067 16.5962C27.9001 16.5506 27.91 16.5042 27.9347 16.4654C27.9593 16.4266 27.9969 16.3979 28.0408 16.3846H31.4525C31.6442 16.3846 31.7975 16.5192 31.8358 16.6923C32.0091 17.2657 32.0931 17.8624 32.085 18.4615C32.66 17.7885 33.3692 17.2308 34.155 16.8077C35.0459 16.3111 36.0492 16.0529 37.0683 16.0577C37.2025 16.0385 37.3175 16.1346 37.3367 16.2692V16.3462Z" fill="#D06BC3"/>
</svg>
